<svg width="14" height="14" viewBox="0 0 14 14" fill="none" xmlns="http://www.w3.org/2000/svg">
<path d="M7.7 1.4C7.7 0.626801 8.3268 0 9.1 0H12.6C13.3732 0 14 0.626801 14 1.4V4.9C14 5.6732 13.3732 6.3 12.6 6.3H9.1C8.3268 6.3 7.7 5.6732 7.7 4.9V1.4Z" fill="#0079FD"/>
<path d="M7.7 1.4C7.7 0.626801 8.3268 0 9.1 0H12.6C13.3732 0 14 0.626801 14 1.4V4.9C14 5.6732 13.3732 6.3 12.6 6.3H9.1C8.3268 6.3 7.7 5.6732 7.7 4.9V1.4Z" fill="#0079FD"/>
<path d="M7.7 9.1C7.7 8.3268 8.3268 7.7 9.1 7.7H12.6C13.3732 7.7 14 8.3268 14 9.1V12.6C14 13.3732 13.3732 14 12.6 14H9.1C8.3268 14 7.7 13.3732 7.7 12.6V9.1Z" fill="#0079FD"/>
<path d="M7.7 9.1C7.7 8.3268 8.3268 7.7 9.1 7.7H12.6C13.3732 7.7 14 8.3268 14 9.1V12.6C14 13.3732 13.3732 14 12.6 14H9.1C8.3268 14 7.7 13.3732 7.7 12.6V9.1Z" fill="#0079FD"/>
<path d="M0 1.4C0 0.626801 0.626801 0 1.4 0H4.9C5.6732 0 6.3 0.626801 6.3 1.4V4.9C6.3 5.6732 5.6732 6.3 4.9 6.3H1.4C0.626801 6.3 0 5.6732 0 4.9V1.4Z" fill="#0079FD"/>
<path d="M0 1.4C0 0.626801 0.626801 0 1.4 0H4.9C5.6732 0 6.3 0.626801 6.3 1.4V4.9C6.3 5.6732 5.6732 6.3 4.9 6.3H1.4C0.626801 6.3 0 5.6732 0 4.9V1.4Z" fill="#0079FD"/>
<path d="M0 9.1C0 8.3268 0.626801 7.7 1.4 7.7H4.9C5.6732 7.7 6.3 8.3268 6.3 9.1V12.6C6.3 13.3732 5.6732 14 4.9 14H1.4C0.626801 14 0 13.3732 0 12.6V9.1Z" fill="#0079FD"/>
<path d="M0 9.1C0 8.3268 0.626801 7.7 1.4 7.7H4.9C5.6732 7.7 6.3 8.3268 6.3 9.1V12.6C6.3 13.3732 5.6732 14 4.9 14H1.4C0.626801 14 0 13.3732 0 12.6V9.1Z" fill="#0079FD"/>
</svg>
