<svg width="299" height="48" viewBox="0 0 299 48" fill="none" xmlns="http://www.w3.org/2000/svg">
<g filter="url(#filter0_i_4_395)">
<path d="M15.7368 9.5063C15.7368 4.25612 20.202 0 25.7101 0H289.027C294.535 0 299 4.25612 299 9.5063V38.4937C299 43.7439 294.535 48 289.027 48H25.7101C20.202 48 15.7368 43.7439 15.7368 38.4937V9.5063Z" fill="#DAEDF8"/>
<path d="M14.7288 29.9381C15.9155 28.6873 18.7056 28.6873 19.8922 29.9381L34.1622 44.9794C35.4132 46.298 33.9586 48 31.5805 48H3.0405C0.662457 48 -0.792192 46.298 0.458834 44.9794L14.7288 29.9381Z" fill="#DAEDF8"/>
</g>
<defs>
<filter id="filter0_i_4_395" x="0" y="-1" width="299" height="49" filterUnits="userSpaceOnUse" color-interpolation-filters="sRGB">
<feFlood flood-opacity="0" result="BackgroundImageFix"/>
<feBlend mode="normal" in="SourceGraphic" in2="BackgroundImageFix" result="shape"/>
<feColorMatrix in="SourceAlpha" type="matrix" values="0 0 0 0 0 0 0 0 0 0 0 0 0 0 0 0 0 0 127 0" result="hardAlpha"/>
<feOffset dy="-1"/>
<feGaussianBlur stdDeviation="0.5"/>
<feComposite in2="hardAlpha" operator="arithmetic" k2="-1" k3="1"/>
<feColorMatrix type="matrix" values="0 0 0 0 0 0 0 0 0 0 0 0 0 0 0 0 0 0 0.13 0"/>
<feBlend mode="normal" in2="shape" result="effect1_innerShadow_4_395"/>
</filter>
</defs>
</svg>
