<svg width="17" height="17" viewBox="0 0 17 17" fill="none" xmlns="http://www.w3.org/2000/svg">
<g opacity="0.3">
<path d="M16.0001 9.17568C15.8688 10.5972 15.3353 11.9519 14.4621 13.0813C13.5889 14.2107 12.4121 15.068 11.0694 15.553C9.72674 16.038 8.27372 16.1305 6.88036 15.8198C5.487 15.5092 4.21094 14.8081 3.20149 13.7986C2.19204 12.7892 1.49096 11.5131 1.18027 10.1198C0.869588 8.7264 0.962151 7.27338 1.44713 5.93071C1.93212 4.58804 2.78946 3.41125 3.91884 2.53806C5.04822 1.66486 6.40293 1.13137 7.82445 1C6.99219 2.12594 6.5917 3.51321 6.69583 4.90947C6.79995 6.30574 7.40177 7.61826 8.39182 8.60831C9.38187 9.59836 10.6944 10.2002 12.0907 10.3043C13.4869 10.4084 14.8742 10.0079 16.0001 9.17568Z" stroke="white" stroke-width="1.28" stroke-linecap="round" stroke-linejoin="round"/>
<path d="M16.0001 9.17568C15.8688 10.5972 15.3353 11.9519 14.4621 13.0813C13.5889 14.2107 12.4121 15.068 11.0694 15.553C9.72674 16.038 8.27372 16.1305 6.88036 15.8198C5.487 15.5092 4.21094 14.8081 3.20149 13.7986C2.19204 12.7892 1.49096 11.5131 1.18027 10.1198C0.869588 8.7264 0.962151 7.27338 1.44713 5.93071C1.93212 4.58804 2.78946 3.41125 3.91884 2.53806C5.04822 1.66486 6.40293 1.13137 7.82445 1C6.99219 2.12594 6.5917 3.51321 6.69583 4.90947C6.79995 6.30574 7.40177 7.61826 8.39182 8.60831C9.38187 9.59836 10.6944 10.2002 12.0907 10.3043C13.4869 10.4084 14.8742 10.0079 16.0001 9.17568Z" stroke="#1966FF" stroke-width="1.28" stroke-linecap="round" stroke-linejoin="round"/>
</g>
</svg>
