<svg width="217" height="48" viewBox="0 0 217 48" fill="none" xmlns="http://www.w3.org/2000/svg">
<path d="M210.673 9.6C210.673 4.29807 204.779 0 197.508 0L13.1648 0C5.89413 0 6.4714e-05 4.29807 6.4714e-05 9.6V38.4C6.4714e-05 43.7019 5.89414 48 13.1649 48H197.508C204.779 48 210.673 43.7019 210.673 38.4V9.6Z" fill="#BFE7FF"/>
<path d="M209.757 32.357C208.879 30.7381 205.737 30.7381 204.86 32.357L197.803 45.3742C197.12 46.6343 198.394 48 200.252 48H214.364C216.223 48 217.496 46.6343 216.813 45.3742L209.757 32.357Z" fill="#BFE7FF"/>
</svg>
