<svg width="66" height="40" viewBox="0 0 66 40" fill="none" xmlns="http://www.w3.org/2000/svg">
<rect x="0.618652" width="65.3747" height="39.0296" rx="9.75741" fill="white"/>
<rect x="0.618652" width="65.3747" height="39.0296" rx="9.75741" fill="#1DA1F2"/>
<path fill-rule="evenodd" clip-rule="evenodd" d="M21.8212 9.69286C21.8212 9.69286 26.2703 15.2231 33.048 15.5557C33.048 15.5557 31.6646 11.8878 35.8001 9.37364C35.8001 9.37364 39.1598 7.40019 42.4023 10.5956C42.4023 10.5956 43.8648 10.5247 45.6275 9.22857C45.6275 9.22857 45.8869 10.4211 43.5883 12.3394C43.5883 12.3394 44.8672 12.2358 46.3188 11.285C46.3188 11.285 46.0424 12.9268 43.6746 14.1194C43.6746 14.1194 44.395 27.1096 31.7182 29.9528C31.7182 29.9528 25.0144 31.4655 20.2931 27.7617C20.2931 27.7617 25.3012 28.2832 27.9618 25.4923C27.9618 25.4923 24.6233 25.8053 22.9798 21.8665C22.9798 21.8665 24.6491 22.1534 25.3274 21.6058C25.3274 21.6058 21.8059 21.6316 21.0233 16.3627C21.0233 16.3627 22.458 17.093 23.397 16.9626C23.397 16.9626 19.4106 14.5004 21.8212 9.69286Z" fill="white"/>
</svg>
